<svg viewBox="0 0 218 218" fill="none" xmlns="http://www.w3.org/2000/svg">
<path d="M0 24C0 10.7452 10.7452 0 24 0H194C207.255 0 218 10.7452 218 24V109C218 169.199 169.199 218 109 218C48.801 218 0 169.199 0 109V24Z" fill="#E15343"/>
<path d="M71.3875 160.49C60.4608 160.49 52.6632 158.18 47.9945 153.561C43.3755 148.942 40.8425 141.269 40.3955 130.541C40.3458 128.952 40.321 127.213 40.321 125.326C40.321 123.389 40.3707 121.477 40.47 119.589C40.5693 117.652 40.7432 115.889 40.9915 114.3H62.0005C61.8018 117.926 61.6777 121.502 61.628 125.028C61.5783 128.554 61.7025 131.783 62.0005 134.713C62.2488 137.147 63.118 139.034 64.608 140.375C66.1477 141.666 68.4075 142.312 71.3875 142.312C74.3178 142.312 76.4535 141.666 77.7945 140.375C79.1852 139.034 80.0295 137.147 80.3275 134.713C80.5262 133.024 80.6503 131.36 80.7 129.721C80.7993 128.033 80.7993 126.369 80.7 124.73C80.6503 123.041 80.5262 121.353 80.3275 119.664C80.1288 117.578 79.4832 115.691 78.3905 114.002C77.2978 112.313 75.5595 111.171 73.1755 110.575L60.9575 107.446C55.7922 106.105 51.6947 104.193 48.665 101.709C45.6353 99.1765 43.4252 96.0475 42.0345 92.3225C40.6935 88.5975 39.9485 84.2517 39.7995 79.285C39.7498 77.0997 39.725 75.1627 39.725 73.474C39.725 71.7357 39.7498 69.9477 39.7995 68.11C40.0975 61.0077 41.2895 55.2712 43.3755 50.9005C45.5112 46.5298 48.8388 43.3512 53.3585 41.3645C57.8782 39.3282 63.8878 38.31 71.3875 38.31C81.9665 38.31 89.64 40.6195 94.408 45.2385C99.176 49.8078 101.784 57.4317 102.231 68.11C102.33 70.2457 102.33 72.8532 102.231 75.9325C102.181 79.0118 102.082 81.8677 101.933 84.5H80.4765C80.6255 81.073 80.7248 77.646 80.7745 74.219C80.8242 70.792 80.7745 67.365 80.6255 63.938C80.5758 61.554 79.7067 59.7163 78.018 58.425C76.379 57.1337 74.1688 56.488 71.3875 56.488C68.4075 56.488 66.1973 57.1337 64.757 58.425C63.3167 59.7163 62.4475 61.554 62.1495 63.938C61.8515 66.471 61.7025 69.0288 61.7025 71.6115C61.7025 74.1942 61.8515 76.752 62.1495 79.285C62.3978 81.2717 63.0932 83.0845 64.2355 84.7235C65.3778 86.3625 67.2155 87.48 69.7485 88.076L80.3275 90.609C85.8902 91.95 90.2608 93.9367 93.4395 96.569C96.6678 99.1517 98.9773 102.38 100.368 106.254C101.808 110.078 102.628 114.548 102.827 119.664C102.876 120.806 102.901 121.998 102.901 123.24C102.901 124.482 102.876 125.723 102.827 126.965C102.777 128.207 102.727 129.399 102.678 130.541C102.231 141.269 99.6478 148.942 94.9295 153.561C90.2608 158.18 82.4135 160.49 71.3875 160.49ZM143.97 160.49C132.597 160.49 124.352 158.18 119.236 153.561C114.17 148.942 111.488 141.269 111.19 130.541C111.141 128.952 111.091 127.635 111.041 126.592C111.041 125.549 111.041 124.506 111.041 123.463C111.091 122.42 111.141 121.104 111.19 119.515H133.54V133.521C133.54 136.352 134.385 138.537 136.073 140.077C137.812 141.567 140.245 142.312 143.374 142.312C146.503 142.312 148.912 141.567 150.601 140.077C152.289 138.537 153.159 136.352 153.208 133.521C153.308 131.286 153.357 128.703 153.357 125.773C153.357 122.843 153.308 120.409 153.208 118.472C153.059 115.393 152.339 112.785 151.048 110.649C149.756 108.514 146.95 107.496 142.629 107.595L128.176 107.744L127.58 88.97L148.887 59.468H112.978V39.8H174.366L174.068 58.872L151.867 88.374C159.764 89.1687 165.575 91.95 169.3 96.718C173.025 101.486 175.111 108.688 175.558 118.323C175.608 119.366 175.633 120.384 175.633 121.378C175.682 122.371 175.707 123.364 175.707 124.357C175.707 125.301 175.682 126.294 175.633 127.337C175.633 128.331 175.608 129.399 175.558 130.541C175.111 141.269 172.454 148.942 167.587 153.561C162.719 158.18 154.847 160.49 143.97 160.49Z" fill="white"/>
</svg>
